<svg width="112" height="95" xmlns="http://www.w3.org/2000/svg" class="iconAboveSlogan">
 <!---->

 <!---->
 <!---->
 <!---->
 <!---->
 <g>
  <title>Layer 1</title>
  <g id="71aeca41-5576-437d-9361-e4cad418b324" transform="matrix(1.87036 0 0 1.87036 38.1232 -50.6086)" fill="#7295e0">
   <path d="m38.60922,50.18589a1.996,1.996 0 0 0 -1.2,-2.085a2.327,2.327 0 0 0 -1.2,-0.315c-17.955,0.018 -35.907,0.5 -53.862,0.517a2.189,2.189 0 0 0 -2.189,1.586a2.545,2.545 0 0 0 -0.21,0.814c-0.294,3.576 2.6,7.235 4.878,9.674c2.696,2.888 6.169,5.352 10.138,5.871a15.787,15.787 0 0 0 1.563,3.252a12.577,12.577 0 0 0 12.806,5.856a17.13,17.13 0 0 0 13.286,-9.575c7.65,-1.487 15.449,-7.44 15.99,-15.595zm-50.39,6.797a17.113,17.113 0 0 1 -2.918,-3.898q4.494,-0.017 8.987,-0.058a42.459,42.459 0 0 0 -0.339,8.104a15.14,15.14 0 0 1 -5.73,-4.148zm19.726,13.728c-9.742,0.563 -9.629,-10.66 -8.846,-17.736q3.744,-0.045 7.488,-0.096l0,7.058c0,3.088 4.8,3.093 4.8,0l0,-7.12q3.915,-0.054 7.83,-0.1a2.458,2.458 0 0 0 0.064,0.98c2.07,7.809 -2.71,16.516 -11.336,17.014zm16.369,-10.285a19.345,19.345 0 0 0 -0.353,-7.762q4.643,-0.047 9.285,-0.06c-1.4,3.59 -5.169,6.458 -8.932,7.822zm-33.258,-20.64a2.226,2.226 0 0 0 0.864,0.174a3.536,3.536 0 0 0 2.436,-1.22a1.001,1.001 0 0 0 0.299,-0.722a9.54,9.54 0 0 0 2.32,-6.314a4.236,4.236 0 0 0 -3.412,-4.139a3.63,3.63 0 0 0 -3.233,0.569c-1.614,1.282 -1.795,3.877 -1.792,5.717c0,0.048 0.08,4.916 2.518,5.935zm28.714,-2.417a0.999,0.999 0 0 0 0.363,0.866l0.044,0.037a3.767,3.767 0 0 0 1.815,1.881a2.137,2.137 0 0 0 0.767,0.143a2.779,2.779 0 0 0 1.994,-0.972c0.019,-0.02 0.037,-0.039 0.054,-0.06l0.01,-0.01c2.554,-2.316 3.326,-5.313 2.066,-8.012c-1.941,-4.155 -4.31,-3.65 -5.234,-3.24c-2.269,1.004 -2.744,4.336 -2.668,6.148a12.947,12.947 0 0 0 0.789,3.22l0,-0.001z" id="svg_2"/>
  </g>
  <g id="24651dc6-ecf3-414f-bc0d-88773ae76bbb" fill="#3E3E3E" transform="matrix(1.034177250920057,0,0,1.034177250920057,33.35407187509452,200.41919344229683)">
   <path d="m1.54,13.78l2.59,0c2.07,0 3.44,-0.9 3.44,-2.71c0,-1.27 -0.82,-2.03 -2.18,-2.22l0,-0.06c1.08,-0.26 1.62,-1.08 1.62,-2.01c0,-1.57 -1.2,-2.24 -3.08,-2.24l-2.39,0l0,9.24zm0.85,-5.21l0,-3.36l1.39,0c1.58,0 2.41,0.47 2.41,1.59c0,1.14 -0.7,1.77 -2.48,1.77l-1.32,0zm0,4.53l0,-3.89l1.57,0c1.78,0 2.79,0.58 2.79,1.85c0,1.41 -1.05,2.04 -2.79,2.04l-1.57,0zm14.73,0.68l5.69,0l0,-0.72l-4.85,0l0,-3.81l3.96,0l0,-0.72l-3.96,0l0,-3.29l4.71,0l0,-0.7l-5.55,0l0,9.24zm32.86,0l0.84,0l0,-8.54l3.14,0l0,-0.7l-7.12,0l0,0.7l3.14,0l0,8.54zm12.81,0l0.84,0l0,-4.54l4.34,0l0,4.54l0.84,0l0,-9.24l-0.84,0l0,3.99l-4.34,0l0,-3.99l-0.84,0l0,9.24zm15.93,0l5.69,0l0,-0.72l-4.85,0l0,-3.81l3.96,0l0,-0.72l-3.96,0l0,-3.29l4.71,0l0,-0.7l-5.55,0l0,9.24zm33.99,0.16c1.18,0 2.05,-0.5 2.76,-1.31l-0.49,-0.52c-0.64,0.71 -1.31,1.09 -2.22,1.09c-1.91,0 -3.11,-1.59 -3.11,-4.07c0,-2.47 1.2,-4.02 3.13,-4.02c0.82,0 1.47,0.36 1.96,0.9l0.48,-0.55c-0.5,-0.57 -1.34,-1.09 -2.44,-1.09c-2.36,0 -4,1.83 -4,4.76c0,2.98 1.64,4.81 3.93,4.81zm11.68,-0.16l0.84,0l0,-4.54l4.34,0l0,4.54l0.84,0l0,-9.24l-0.84,0l0,3.99l-4.34,0l0,-3.99l-0.84,0l0,9.24zm14.78,0l0.84,0l1.01,-3.07l3.54,0l1,3.07l0.87,0l-3.18,-9.24l-0.9,0l-3.18,9.24zm2.1,-3.76l0.52,-1.61c0.35,-1.07 0.66,-2.04 0.98,-3.16l0.06,0c0.31,1.12 0.61,2.09 0.98,3.16l0.52,1.61l-3.06,0zm13.98,3.76l0.78,0l0,-5.42c0,-0.9 -0.08,-1.81 -0.1,-2.72l0.02,0l0.98,1.85l3.37,6.29l0.85,0l0,-9.24l-0.78,0l0,5.36c0,0.92 0.08,1.87 0.1,2.76l-0.02,0l-4.35,-8.12l-0.85,0l0,9.24zm18.84,0.16c1.2,0 2.13,-0.46 2.7,-1.05l0,-3.75l-2.81,0l0,0.7l2.01,0l0,2.72c-0.4,0.39 -1.09,0.64 -1.84,0.64c-1.95,0 -3.08,-1.59 -3.08,-4.07c0,-2.47 1.21,-4.02 3.15,-4.02c0.93,0 1.52,0.39 2,0.9l0.47,-0.55c-0.49,-0.52 -1.27,-1.09 -2.47,-1.09c-2.4,0 -4.04,1.82 -4.04,4.76c0,2.98 1.61,4.81 3.91,4.81zm12.43,-0.16l5.69,0l0,-0.72l-4.85,0l0,-3.81l3.96,0l0,-0.72l-3.96,0l0,-3.29l4.71,0l0,-0.7l-5.55,0l0,9.24z" id="svg_3"/>
  </g>
 </g>
</svg>